<?xml version="1.0" standalone="no"?>
<!DOCTYPE svg PUBLIC "-//W3C//DTD SVG 20010904//EN"
 "http://www.w3.org/TR/2001/REC-SVG-20010904/DTD/svg10.dtd">
<svg version="1.0" xmlns="http://www.w3.org/2000/svg"
 width="696.000000pt" height="840.000000pt" viewBox="0 0 696.000000 840.000000"
 preserveAspectRatio="xMidYMid meet">

<g transform="translate(0.000000,840.000000) scale(0.100000,-0.100000)"
fill="#000000" stroke="none">
<path d="M3185 8090 c-945 -84 -1777 -564 -2331 -1345 -395 -555 -617 -1312
-574 -1955 52 -780 309 -1416 793 -1967 274 -311 555 -530 932 -724 784 -404
1636 -465 2486 -178 1043 351 1851 1267 2073 2351 47 226 59 364 59 633 0 267
-11 394 -59 636 -153 788 -581 1461 -1240 1950 -415 308 -924 510 -1474 584
-137 19 -525 27 -665 15z m623 -25 c941 -117 1749 -610 2271 -1385 374 -555
573 -1267 532 -1896 -55 -814 -344 -1490 -880 -2056 -354 -374 -886 -696
-1391 -842 -653 -189 -1348 -163 -2000 76 -168 61 -444 203 -605 310 -821 546
-1305 1335 -1426 2323 -19 149 -16 502 5 675 73 618 283 1123 676 1631 192
248 517 538 787 703 470 286 957 443 1493 480 104 7 415 -4 538 -19z"/>
<path d="M3224 7854 c-7 -3 -8 -26 -2 -72 11 -86 5 -110 -29 -118 -33 -9 -63
24 -63 70 0 67 -12 106 -32 106 -17 0 -18 -6 -12 -67 8 -82 21 -113 55 -132
22 -12 34 -13 68 -2 51 15 64 43 56 120 -11 101 -13 106 -41 95z"/>
<path d="M3300 7845 c0 -10 10 -15 30 -15 30 0 30 -1 30 -52 0 -85 10 -128 29
-128 15 0 17 11 13 90 l-4 90 31 0 c21 0 31 5 31 15 0 12 -16 15 -80 15 -64 0
-80 -3 -80 -15z"/>
<path d="M3498 7755 c-3 -92 -1 -105 13 -105 20 0 29 20 29 61 0 28 2 29 45
29 l45 0 0 -50 c0 -43 3 -50 20 -50 19 0 20 7 20 104 0 80 -3 105 -14 109 -20
8 -26 -2 -26 -45 l0 -38 -45 0 -45 0 0 45 c0 38 -3 45 -19 45 -18 0 -20 -9
-23 -105z"/>
<path d="M3771 7826 c-33 -18 -50 -53 -51 -101 0 -48 18 -78 59 -95 88 -36
173 49 142 143 -19 57 -94 84 -150 53z m86 -24 c22 -14 32 -58 22 -96 -15 -56
-62 -73 -99 -36 -31 31 -23 108 14 132 14 10 48 10 63 0z"/>
<path d="M2923 7808 c-11 -15 -48 -207 -41 -214 12 -11 38 10 38 31 0 37 81
50 100 15 10 -19 55 -29 48 -11 -1 5 -25 50 -53 100 -49 89 -70 107 -92 79z
m46 -74 c12 -20 20 -38 19 -39 -2 -2 -16 -7 -32 -11 -28 -7 -29 -6 -23 26 4
18 7 39 7 46 0 22 6 17 29 -22z"/>
<path d="M3986 7793 c-5 -16 -36 -180 -36 -189 0 -2 8 -4 19 -4 14 0 21 10 25
35 10 52 39 47 54 -10 9 -34 17 -45 32 -45 24 0 24 -3 6 48 -12 34 -12 41 -1
46 8 3 21 16 30 30 31 47 -2 88 -82 101 -35 5 -42 4 -47 -12z m89 -58 c0 -27
-4 -30 -32 -33 -35 -3 -38 3 -27 46 5 18 13 22 33 20 22 -2 26 -8 26 -33z"/>
<path d="M4185 7757 c-9 -25 -45 -176 -45 -186 0 -6 8 -11 18 -11 15 0 22 18
40 93 12 50 22 95 22 98 0 13 -31 18 -35 6z"/>
<path d="M2614 7744 c-18 -7 36 -204 56 -204 30 0 104 27 108 40 3 9 -7 11
-46 5 l-49 -7 -7 35 c-11 58 -36 137 -44 136 -4 0 -12 -3 -18 -5z"/>
<path d="M4260 7735 c0 -9 11 -20 25 -25 14 -5 25 -11 25 -12 0 -2 -11 -39
-25 -82 -25 -80 -25 -96 0 -96 12 0 26 37 59 155 1 6 17 10 34 10 54 0 36 19
-40 42 -40 12 -74 23 -75 23 -2 0 -3 -7 -3 -15z"/>
<path d="M2458 7693 c-16 -4 -18 -18 -18 -120 0 -101 2 -114 16 -109 9 3 18 6
20 6 2 0 4 13 4 29 0 25 6 31 36 41 30 10 38 9 53 -4 19 -17 51 -22 51 -7 0 7
-139 172 -143 170 -1 -1 -10 -3 -19 -6z m52 -82 c20 -30 20 -30 1 -40 -33 -18
-41 -13 -41 29 0 48 11 51 40 11z"/>
<path d="M4465 7612 c6 -63 4 -85 -9 -110 -15 -29 -15 -32 2 -41 14 -8 20 -3
37 32 12 24 41 57 70 79 27 21 51 42 53 48 7 20 -41 10 -70 -15 -37 -31 -48
-25 -48 25 0 30 -5 42 -21 50 -20 11 -20 10 -14 -68z"/>
<path d="M2278 7623 c-33 -15 -58 -33 -58 -41 0 -9 7 -12 18 -9 9 2 23 6 31 8
9 3 26 -24 49 -78 31 -71 38 -80 53 -72 17 9 16 15 -17 91 -19 44 -33 82 -32
83 2 1 13 8 26 14 12 6 22 16 22 21 0 16 -31 10 -92 -17z"/>
<path d="M2161 7571 c-11 -7 -8 -21 17 -75 17 -36 29 -66 26 -66 -3 0 -36 18
-73 40 -65 38 -91 47 -104 34 -7 -8 84 -194 96 -194 20 0 16 33 -12 89 -17 34
-29 61 -27 61 2 0 38 -20 80 -45 42 -25 82 -42 91 -39 8 4 15 8 15 10 0 7 -89
194 -92 194 -2 0 -9 -4 -17 -9z"/>
<path d="M4750 7527 c-54 -28 -85 -110 -60 -158 14 -25 62 -49 100 -49 44 0
77 25 95 75 16 39 16 46 1 77 -26 53 -89 79 -136 55z m96 -52 c18 -28 10 -65
-22 -100 -27 -29 -59 -32 -86 -8 -22 20 -23 56 -1 93 30 51 81 58 109 15z"/>
<path d="M1913 7437 c-29 -18 -53 -35 -53 -40 0 -6 93 -161 105 -175 2 -2 29
13 60 33 41 26 54 40 47 47 -7 7 -22 4 -48 -12 -36 -23 -37 -23 -50 -5 -21 28
-17 43 16 60 17 9 30 19 30 24 0 19 -16 19 -48 -1 -34 -21 -35 -21 -48 -3 -20
27 -18 31 21 55 19 12 35 25 35 30 0 20 -18 16 -67 -13z"/>
<path d="M3255 7449 c-448 -43 -829 -173 -1180 -403 -778 -511 -1195 -1348
-1144 -2299 18 -352 97 -637 267 -972 327 -643 923 -1126 1606 -1300 898 -229
1795 14 2441 660 643 643 886 1546 656 2436 -117 452 -348 841 -702 1184 -374
362 -857 598 -1382 676 -156 23 -422 32 -562 18z m565 -34 c531 -81 1003 -315
1384 -685 799 -775 994 -1983 479 -2970 -308 -590 -807 -1016 -1437 -1225
-278 -92 -497 -127 -801 -127 -264 1 -430 22 -670 89 -475 131 -977 461 -1275
838 -235 298 -398 623 -485 965 -57 225 -69 335 -70 625 0 239 3 285 23 398
85 467 249 835 531 1184 105 130 313 333 431 420 409 300 814 456 1325 507 90
9 465 -3 565 -19z"/>
<path d="M2909 6916 c-107 -29 -195 -110 -224 -208 -37 -124 -27 -267 26 -375
55 -114 138 -156 304 -155 56 0 116 7 153 17 l62 18 0 187 0 188 -102 7 c-57
4 -116 5 -133 3 -29 -3 -30 -4 -33 -65 l-3 -63 66 0 65 0 0 -79 c0 -63 -3 -80
-16 -85 -33 -13 -120 -5 -162 14 -36 16 -47 29 -70 77 -23 50 -27 71 -27 153
0 73 4 103 19 130 62 117 169 153 309 104 l38 -14 25 57 c29 64 28 64 -50 88
-59 18 -183 19 -247 1z"/>
<path d="M4152 6923 l-32 -4 2 -367 3 -367 140 0 c155 1 212 13 296 66 95 60
133 147 132 304 0 256 -113 359 -403 369 -58 2 -120 2 -138 -1z m250 -134 c67
-15 121 -65 138 -129 18 -66 8 -195 -18 -247 -37 -71 -112 -107 -207 -101
l-50 3 0 63 c1 34 2 143 3 242 l2 180 40 0 c21 0 63 -5 92 -11z"/>
<path d="M2370 6555 l0 -365 33 0 c17 0 49 -3 70 -6 l37 -7 0 372 0 371 -70 0
-70 0 0 -365z"/>
<path d="M3461 6558 c-66 -199 -120 -363 -118 -364 1 -1 34 -4 73 -6 l71 -5
28 88 29 89 131 0 132 0 23 -85 23 -85 36 0 c20 0 53 -3 74 -6 26 -5 37 -3 37
6 0 7 -53 174 -117 371 l-118 359 -92 0 -91 0 -121 -362z m262 87 c21 -72 37
-136 37 -143 0 -8 -25 -12 -85 -12 -73 0 -85 2 -85 17 0 13 58 220 76 272 9
26 20 -1 57 -134z"/>
<path d="M1690 6050 c-123 -65 -244 -250 -265 -405 -4 -28 -9 -59 -12 -70 -8
-31 224 313 301 448 31 52 28 55 -24 27z"/>
<path d="M5206 6003 c40 -73 171 -271 242 -368 l44 -60 -7 40 c-17 106 -28
143 -61 206 -20 37 -60 94 -90 127 -50 56 -135 122 -157 122 -5 0 8 -30 29
-67z"/>
<path d="M2820 5883 c-36 -20 -62 -27 -127 -31 -81 -4 -82 -5 -98 -38 l-16
-34 -204 0 c-194 0 -205 -1 -205 -19 0 -10 7 -22 16 -25 9 -3 166 -6 349 -6
298 0 334 -2 339 -16 15 -39 -8 -44 -200 -44 l-183 0 -61 -87 -61 -88 162 -3
c179 -3 205 -10 179 -52 -7 -12 -45 -16 -201 -20 l-192 -5 -37 -60 -37 -60
-210 -3 c-170 -2 -212 -5 -216 -16 -13 -33 19 -36 424 -38 l404 -3 0 -25 0
-25 -184 -5 -184 -5 -18 -64 c-13 -49 -14 -70 -6 -88 10 -23 11 -23 198 -23
176 0 189 -1 199 -19 7 -15 6 -23 -6 -35 -13 -13 -43 -16 -170 -16 -85 0 -154
-3 -154 -8 0 -4 16 -29 35 -56 19 -27 35 -53 35 -58 0 -4 -73 -9 -162 -10
-155 -3 -163 -4 -163 -23 0 -19 8 -20 200 -25 l200 -5 79 -44 78 -44 97 7 c84
6 107 12 179 46 46 22 95 40 109 40 14 0 71 -26 126 -57 56 -31 103 -57 104
-58 2 -1 -15 -81 -23 -107 -5 -17 8 -18 180 -18 154 0 187 -3 200 -16 19 -19
20 -26 4 -42 -8 -8 -60 -12 -170 -12 -87 0 -158 -2 -158 -5 0 -3 16 -25 35
-51 57 -74 58 -73 -137 -76 -165 -3 -173 -4 -173 -23 0 -20 8 -20 371 -23 315
-2 374 -5 384 -17 10 -12 10 -18 0 -30 -10 -12 -45 -15 -192 -15 l-180 0 6
-22 c16 -56 17 -84 2 -113 -29 -55 -31 -55 158 -55 142 0 176 -3 186 -15 10
-12 10 -18 0 -30 -10 -12 -45 -15 -192 -15 l-180 0 3 -67 4 -68 -172 -3 c-165
-2 -173 -3 -173 -22 0 -20 8 -20 373 -20 309 0 376 -2 393 -14 15 -12 17 -18
8 -33 -10 -16 -30 -18 -179 -21 l-167 -2 7 -67 c13 -120 -2 -112 219 -115
l191 -3 0 -25 0 -25 -168 -3 -168 -2 7 -23 c3 -12 15 -39 26 -60 10 -21 16
-42 13 -47 -4 -6 -81 -10 -186 -10 -172 0 -179 -1 -179 -20 0 -19 7 -20 186
-20 169 0 190 -2 219 -20 l32 -20 104 21 c115 23 152 42 237 123 61 57 95 111
112 174 6 24 27 61 47 83 34 37 38 48 49 136 l12 96 64 66 c35 36 74 78 86 92
l23 27 -27 172 -28 172 -25 -31 c-14 -17 -31 -31 -37 -31 -6 0 -27 18 -47 40
-21 24 -64 53 -102 72 -63 29 -70 30 -147 23 l-81 -7 6 36 c3 20 15 48 26 63
25 31 27 80 5 111 -11 17 -25 22 -57 22 -36 0 -45 4 -60 29 -9 16 -47 60 -85
97 -49 49 -73 82 -88 123 -12 31 -28 70 -35 88 -18 45 2 109 42 131 28 17 29
19 29 98 0 64 3 83 15 88 8 3 15 14 15 25 0 51 0 51 189 51 170 1 177 2 205
24 l29 24 -59 137 -58 138 -85 -6 c-60 -5 -127 0 -225 14 -77 11 -146 17 -153
15 -7 -3 -13 -18 -13 -34 0 -23 -6 -32 -30 -42 -28 -12 -41 -9 -143 31 -103
41 -117 49 -178 112 l-65 67 -125 0 c-116 0 -127 -2 -169 -27z"/>
<path d="M1292 5740 c-33 -83 -41 -135 -42 -246 0 -113 17 -178 56 -214 16
-16 25 -36 26 -59 1 -34 1 -34 5 -6 3 22 15 36 45 55 53 32 151 156 206 259
43 80 43 81 20 81 -54 0 -152 -79 -208 -168 -8 -12 -13 -13 -16 -5 -3 7 -11
10 -18 7 -10 -4 -14 25 -19 128 -3 73 -12 153 -19 178 l-14 45 -22 -55z"/>
<path d="M5597 5770 c-20 -51 -37 -149 -38 -216 -1 -68 -14 -162 -18 -127 0 7
-7 10 -13 8 -7 -3 -24 12 -38 32 -52 77 -140 143 -190 143 -26 0 -26 -3 11
-69 77 -136 157 -237 221 -277 28 -18 38 -32 41 -56 3 -30 4 -29 5 8 1 25 9
47 19 55 52 43 78 220 54 365 -14 79 -45 158 -54 134z"/>
<path d="M5521 5464 c0 -11 3 -14 6 -6 3 7 2 16 -1 19 -3 4 -6 -2 -5 -13z"/>
<path d="M1144 5116 c12 -188 70 -340 150 -394 l43 -29 20 21 c61 64 111 185
148 364 22 105 21 107 -20 75 -49 -38 -102 -118 -130 -194 -13 -35 -24 -56
-24 -46 -1 25 -21 21 -21 -5 0 -39 -17 -6 -45 87 -38 127 -90 225 -118 225 -6
0 -8 -37 -3 -104z"/>
<path d="M5731 5191 c-32 -44 -86 -166 -106 -236 -10 -33 -21 -64 -26 -69 -5
-6 -10 43 -11 120 l-2 129 -6 -115 c-3 -73 -8 -108 -13 -95 -34 84 -74 154
-114 196 -25 27 -50 49 -56 49 -12 0 -2 -81 24 -184 24 -96 70 -198 109 -248
18 -22 31 -50 31 -70 l2 -33 6 32 c4 21 17 39 41 55 82 55 133 176 151 365 13
129 5 154 -30 104z"/>
<path d="M1507 4661 c-15 -18 -34 -48 -41 -66 -16 -37 -36 -156 -36 -209 0
-64 -16 -38 -40 65 -13 56 -26 97 -27 92 -2 -6 6 -52 17 -103 11 -51 19 -94
17 -96 -1 -2 -30 38 -62 88 -33 49 -87 115 -120 146 -54 50 -60 54 -63 34 -5
-33 25 -127 70 -222 49 -102 132 -191 196 -211 27 -8 44 -19 48 -33 3 -12 35
-83 70 -159 35 -76 64 -143 64 -149 0 -6 -38 26 -84 69 -46 44 -105 92 -131
107 -45 27 -105 49 -105 40 0 -16 66 -129 106 -183 77 -102 203 -181 289 -181
16 0 35 -18 65 -61 23 -34 67 -90 97 -126 31 -35 53 -67 50 -70 -4 -3 -56 18
-116 47 -81 38 -127 53 -171 57 -37 4 -60 2 -60 -4 0 -22 85 -105 155 -152
122 -81 216 -107 303 -82 30 9 38 6 96 -38 34 -26 95 -68 134 -92 104 -64 100
-67 -43 -44 -49 8 -115 15 -146 15 -63 0 -122 -17 -116 -33 6 -19 95 -67 176
-94 56 -20 102 -28 176 -31 100 -4 100 -4 144 28 l44 32 121 -45 c67 -25 137
-50 156 -55 44 -12 30 -17 -83 -31 -140 -19 -267 -66 -267 -101 0 -18 111 -35
235 -35 159 0 218 17 283 84 l43 44 61 -7 c85 -10 316 -69 363 -93 l39 -20
-140 -93 c-159 -106 -159 -106 -146 -114 5 -3 54 26 108 65 112 80 183 119
216 119 28 0 156 -72 250 -140 38 -27 73 -50 78 -50 27 0 -14 34 -140 115 -77
50 -140 93 -140 97 0 19 287 101 403 114 l58 7 35 -41 c57 -67 121 -86 284
-87 131 0 240 16 240 36 0 19 -79 60 -153 78 -42 11 -111 23 -152 27 -41 4
-75 10 -75 13 0 4 21 12 47 19 26 7 94 31 152 53 l105 39 39 -27 c67 -47 188
-48 328 -3 73 24 170 77 176 97 5 16 -59 33 -122 33 -27 0 -93 -7 -145 -15
-146 -22 -149 -20 -48 40 35 20 95 61 133 91 l71 53 49 -14 c81 -25 180 8 301
99 34 25 81 67 105 93 l44 48 -32 3 c-49 5 -148 -24 -235 -68 -43 -22 -80 -40
-83 -40 -14 0 0 23 48 77 28 32 72 87 97 121 35 49 50 62 70 62 15 0 50 7 78
15 83 25 206 150 275 280 31 58 33 65 11 65 -35 0 -136 -65 -210 -136 -42 -41
-79 -72 -81 -70 -3 2 16 46 40 98 25 51 48 104 51 118 4 14 -13 -15 -38 -65
-72 -149 -73 -149 -72 6 1 118 -2 139 -20 174 -12 22 -25 39 -30 38 -15 -2
-51 -162 -63 -279 -10 -92 -9 -118 4 -167 17 -67 17 -69 -56 -167 -50 -69
-116 -137 -123 -129 -3 3 6 40 19 82 15 46 25 102 25 136 0 58 -15 121 -30
121 -10 0 -103 -201 -130 -280 -13 -39 -22 -93 -23 -137 l-2 -72 -79 -60 c-82
-61 -174 -116 -182 -109 -2 3 10 22 27 44 53 65 89 154 96 233 3 42 2 71 -4
71 -22 0 -197 -210 -235 -283 -12 -23 -29 -69 -37 -101 l-16 -59 -101 -38
c-109 -41 -182 -61 -188 -50 -2 3 26 31 63 61 68 57 122 143 136 218 9 45 -8
42 -97 -17 -127 -85 -232 -184 -261 -245 -14 -30 -30 -57 -35 -60 -5 -3 -62
-15 -128 -26 -65 -12 -171 -39 -234 -61 -62 -21 -123 -39 -133 -39 -10 0 -73
18 -139 40 -67 23 -177 51 -246 63 l-124 22 -28 55 c-36 68 -59 95 -135 156
-71 56 -203 144 -218 144 -16 0 0 -69 30 -128 17 -34 53 -78 97 -118 38 -35
68 -65 65 -68 -11 -10 -257 72 -286 96 -7 6 -13 20 -13 32 0 44 -22 98 -67
164 -57 83 -192 242 -206 242 -6 0 -8 -27 -5 -72 5 -80 22 -120 88 -215 23
-32 36 -59 30 -61 -14 -5 -69 28 -172 105 l-88 65 0 57 c0 85 -34 202 -97 331
l-56 115 -15 -35 c-24 -57 -19 -173 11 -252 15 -38 22 -68 17 -68 -13 0 -91
83 -146 156 -43 56 -44 61 -37 104 15 86 5 278 -19 385 -13 55 -27 100 -33
100 -5 0 -20 -25 -33 -55 -20 -48 -22 -69 -20 -173 2 -64 0 -117 -3 -117 -5 0
-120 236 -132 272 -4 10 7 49 24 88 37 88 55 242 42 374 l-8 90 -28 -33z"/>
<path d="M5363 4674 c-3 -9 -3 -86 0 -172 6 -159 22 -249 53 -297 10 -15 14
-37 12 -56 -5 -31 -5 -31 11 -10 9 12 39 32 66 45 57 26 108 78 152 156 41 71
89 193 98 248 7 41 6 43 -12 34 -35 -19 -129 -127 -173 -199 -25 -40 -49 -73
-53 -73 -5 0 -7 17 -4 38 l6 37 -11 -32 c-6 -18 -14 -33 -18 -33 -4 0 -10 30
-13 68 -9 90 -32 174 -59 217 -27 40 -46 51 -55 29z"/>
<path d="M1341 4644 c0 -11 3 -14 6 -6 3 7 2 16 -1 19 -3 4 -6 -2 -5 -13z"/>
<path d="M5552 4605 c0 -16 2 -22 5 -12 2 9 2 23 0 30 -3 6 -5 -1 -5 -18z"/>
<path d="M1352 4580 c0 -14 2 -19 5 -12 2 6 2 18 0 25 -3 6 -5 1 -5 -13z"/>
<path d="M5542 4540 c0 -14 2 -19 5 -12 2 6 2 18 0 25 -3 6 -5 1 -5 -13z"/>
<path d="M5532 4490 c0 -14 2 -19 5 -12 2 6 2 18 0 25 -3 6 -5 1 -5 -13z"/>
<path d="M5521 4444 c0 -11 3 -14 6 -6 3 7 2 16 -1 19 -3 4 -6 -2 -5 -13z"/>
<path d="M4670 4117 c0 -8 -9 -22 -20 -32 -11 -10 -20 -24 -20 -32 0 -21 -40
-55 -79 -65 -64 -18 -74 -33 -66 -110 6 -53 4 -72 -9 -90 -20 -28 -21 -98 -2
-143 12 -27 21 -35 40 -35 45 0 75 21 90 64 33 88 96 294 96 310 0 9 5 14 10
11 14 -9 12 24 -5 83 -15 48 -35 70 -35 39z"/>
<path d="M4924 7355 c-50 -75 -60 -105 -34 -105 5 0 27 28 49 62 l41 63 0 -91
c0 -70 4 -95 15 -104 9 -7 17 -11 19 -9 2 2 28 42 59 89 49 72 54 86 41 93
-10 6 -19 6 -23 0 -3 -5 -22 -34 -41 -64 l-35 -54 -3 97 c-4 130 -15 133 -88
23z"/>
<path d="M1771 7343 l-22 -18 25 -72 c14 -40 22 -73 19 -73 -4 0 -33 20 -65
45 -49 39 -61 44 -78 35 -11 -6 -20 -15 -20 -20 0 -5 23 -48 51 -94 36 -60 55
-83 65 -79 18 7 15 17 -31 89 -20 31 -35 58 -33 59 2 2 32 -19 67 -46 35 -27
67 -49 72 -49 20 0 18 28 -6 99 -14 41 -23 76 -21 78 2 2 25 -23 51 -56 46
-61 58 -70 70 -51 5 8 -56 94 -115 163 -4 4 -17 0 -29 -10z"/>
<path d="M5192 7174 c-34 -42 -62 -80 -62 -84 0 -5 19 -22 42 -39 60 -44 108
-43 155 4 32 32 35 39 30 78 -4 34 -14 49 -49 79 -24 21 -46 38 -49 38 -3 0
-33 -34 -67 -76z m105 4 c31 -29 29 -64 -7 -100 -25 -24 -36 -29 -58 -23 -57
14 -59 29 -12 89 23 31 45 56 48 56 3 0 16 -10 29 -22z"/>
<path d="M1545 7170 c-4 -6 12 -33 36 -61 23 -27 39 -52 37 -54 -2 -3 -41 6
-86 19 -68 20 -83 21 -93 10 -17 -20 118 -179 138 -163 15 13 14 15 -46 83
-19 22 -30 41 -25 43 5 1 43 -8 84 -21 54 -18 80 -21 93 -14 16 8 17 12 5 26
-122 145 -130 153 -143 132z"/>
<path d="M5365 7030 c-33 -39 -61 -74 -63 -79 -2 -5 18 -27 44 -50 34 -30 50
-38 58 -31 8 8 2 19 -22 38 -37 31 -39 42 -12 67 20 18 21 18 50 -10 20 -19
33 -26 40 -19 7 7 0 20 -20 39 -23 22 -27 32 -19 46 13 26 31 24 59 -6 24 -25
50 -33 50 -15 0 12 -82 90 -95 89 -5 0 -37 -31 -70 -69z"/>
<path d="M1315 6960 c-21 -22 -37 -41 -34 -43 2 -1 37 -34 77 -72 55 -53 75
-66 84 -57 9 9 5 19 -17 42 -39 41 -25 55 39 39 40 -10 50 -9 63 3 13 14 9 17
-31 27 -38 9 -46 15 -46 34 0 38 -27 67 -64 67 -24 0 -41 -10 -71 -40z m93
-32 c-2 -12 -11 -26 -20 -32 -14 -8 -22 -6 -40 12 l-23 23 23 19 c29 24 65 11
60 -22z"/>
<path d="M5512 6896 c-29 -53 -52 -100 -52 -105 0 -5 7 -14 15 -21 13 -11 33
-6 115 30 55 24 100 47 100 52 0 22 -37 17 -105 -15 -41 -20 -75 -32 -75 -26
0 5 18 41 39 79 33 58 37 71 27 86 -11 15 -19 5 -64 -80z"/>
<path d="M1202 6840 c-23 -27 -42 -51 -42 -53 0 -3 34 -35 76 -73 l77 -68 43
48 c24 26 44 52 44 57 0 19 -30 7 -55 -22 l-26 -32 -25 24 -24 23 26 27 c39
41 20 59 -20 20 l-32 -31 -19 20 c-18 20 -18 21 8 48 15 16 27 33 27 39 0 27
-19 19 -58 -27z"/>
<path d="M5638 6749 c-40 -34 -74 -64 -76 -68 -4 -12 86 -106 94 -98 5 4 4 14
-1 21 -50 68 -49 64 -24 86 l24 20 27 -32 c20 -23 31 -29 39 -21 7 7 3 19 -15
40 l-26 30 21 19 c21 18 21 18 50 -14 29 -32 49 -41 49 -21 0 12 -71 99 -81
99 -4 0 -40 -28 -81 -61z"/>
<path d="M1111 6736 c-15 -17 -13 -21 46 -99 25 -33 43 -61 41 -63 -2 -2 -41
9 -87 24 -70 23 -83 24 -91 12 -13 -21 -7 -24 100 -53 114 -32 107 -32 119 -8
8 15 -1 35 -51 107 -33 49 -61 90 -63 92 -1 1 -8 -4 -14 -12z"/>
<path d="M5748 6609 c-43 -33 -78 -62 -78 -65 0 -13 67 -93 78 -94 18 0 15 18
-8 47 -11 14 -20 29 -20 33 0 5 32 32 70 60 57 42 68 55 59 66 -6 8 -14 14
-18 14 -3 0 -41 -27 -83 -61z"/>
<path d="M995 6532 c-30 -6 -63 -41 -75 -78 -22 -66 37 -134 115 -134 51 0 95
46 95 101 0 65 -72 124 -135 111z m78 -70 c73 -70 -14 -142 -92 -76 -38 32
-42 75 -8 99 28 20 63 12 100 -23z"/>
<path d="M5860 6499 c-65 -27 -91 -83 -66 -142 30 -72 119 -85 178 -27 76 76
-13 210 -112 169z m92 -46 c45 -41 -9 -123 -81 -123 -59 0 -68 80 -12 117 40
27 68 29 93 6z"/>
<path d="M832 6315 c-63 -80 -13 -185 88 -185 45 0 67 15 90 60 28 55 25 67
-22 91 l-41 21 -18 -23 c-10 -13 -19 -30 -19 -36 0 -17 27 -17 32 -1 4 10 10
10 32 0 26 -11 26 -13 12 -41 -19 -35 -49 -44 -92 -26 -62 26 -77 81 -36 128
11 12 12 21 5 28 -7 7 -17 2 -31 -16z"/>
<path d="M5975 6269 c-93 -47 -97 -50 -86 -67 6 -10 15 -9 44 3 l36 15 16 -30
c31 -61 116 -58 123 3 4 32 -28 117 -43 117 -5 -1 -46 -19 -90 -41z m101 -34
c6 -26 -9 -55 -29 -55 -15 0 -47 31 -47 45 0 12 35 33 57 34 7 1 15 -10 19
-24z"/>
<path d="M754 6120 c-18 -7 -71 -106 -62 -115 5 -5 181 -75 189 -75 4 0 10 7
13 16 4 11 -4 19 -29 30 -50 21 -45 41 13 50 44 6 61 17 62 37 0 5 -22 6 -50
2 -40 -5 -50 -4 -50 7 0 37 -48 63 -86 48z m56 -75 c0 -32 -15 -39 -51 -25
-34 15 -36 23 -9 50 26 26 60 12 60 -25z"/>
<path d="M6048 6087 c-71 -26 -85 -35 -78 -47 8 -13 20 -11 87 12 l78 28 -64
-58 c-48 -43 -63 -63 -58 -75 4 -12 14 -16 29 -13 54 11 140 17 135 9 -3 -5
-33 -22 -66 -38 -42 -19 -61 -34 -61 -47 0 -10 3 -18 7 -18 6 0 174 88 182 96
2 2 -1 14 -6 27 -10 22 -15 23 -65 16 -108 -15 -110 -14 -44 45 48 43 57 56
52 74 -9 29 -24 27 -128 -11z"/>
<path d="M654 5924 c-8 -19 -17 -48 -20 -63 -6 -27 -3 -28 83 -59 49 -18 93
-32 99 -32 9 0 46 97 44 117 -1 21 -24 4 -34 -24 -15 -42 -20 -47 -52 -39 -21
6 -25 11 -20 29 18 65 18 67 3 67 -9 0 -18 -13 -22 -30 -8 -36 -18 -44 -46
-35 -16 5 -19 12 -15 28 4 12 9 34 12 50 9 40 -14 34 -32 -9z"/>
<path d="M6173 5827 c-50 -18 -94 -35 -97 -38 -3 -3 3 -33 15 -67 15 -44 24
-59 35 -55 17 6 17 2 -1 52 -13 38 -13 41 5 51 33 18 47 11 59 -30 8 -27 16
-37 26 -34 12 5 12 11 0 45 -14 39 -14 40 11 49 14 6 27 10 28 10 2 0 9 -20
16 -45 12 -43 23 -55 34 -36 5 7 -32 133 -37 130 -1 0 -43 -15 -94 -32z"/>
<path d="M590 5731 c-24 -82 -25 -91 -5 -91 8 0 15 9 15 19 0 37 4 37 173 -15
15 -5 18 -1 15 17 -2 18 -16 26 -78 44 -73 22 -75 23 -75 54 0 58 -23 44 -45
-28z"/>
<path d="M6217 5655 c-49 -13 -90 -25 -93 -28 -2 -2 -2 -11 1 -20 6 -13 14
-13 73 4 36 10 68 17 70 14 3 -2 -21 -32 -52 -65 -53 -58 -71 -100 -43 -100 7
0 36 6 63 14 27 8 68 20 92 26 25 6 42 17 42 25 0 19 -20 19 -90 0 -30 -8 -55
-13 -57 -12 -1 2 22 31 52 66 52 59 70 102 43 100 -7 0 -53 -11 -101 -24z"/>
<path d="M547 5579 c-5 -19 4 -23 86 -34 26 -4 47 -11 47 -15 0 -4 -36 -22
-80 -40 -114 -46 -110 -61 21 -87 85 -17 101 -18 106 -6 8 20 2 23 -71 35 -36
6 -66 14 -66 18 0 4 34 20 76 36 42 16 80 37 86 47 5 10 8 20 6 21 -2 2 -49
12 -105 23 -96 19 -102 19 -106 2z"/>
<path d="M6355 5431 c7 -34 8 -33 -102 -51 -49 -8 -73 -16 -73 -25 0 -23 15
-25 96 -11 82 15 90 13 96 -18 1 -11 9 -21 17 -24 12 -4 13 6 7 54 -10 83 -16
104 -33 104 -11 0 -13 -7 -8 -29z"/>
<path d="M500 5342 c0 -16 14 -20 89 -30 115 -16 121 -15 121 6 0 16 -14 20
-89 30 -115 16 -121 15 -121 -6z"/>
<path d="M6274 4967 l-20 -62 -71 -5 -72 -5 55 -40 c60 -43 58 -35 30 -127 -8
-27 -14 -48 -12 -48 1 0 26 18 56 40 29 22 58 37 64 33 6 -3 32 -22 59 -40 26
-19 47 -33 47 -30 0 2 -9 30 -20 62 -11 32 -20 61 -20 65 0 4 26 24 57 46 l57
39 -74 5 -74 5 -17 58 c-10 33 -19 61 -21 63 -3 2 -13 -24 -24 -59z"/>
<path d="M575 4960 l-18 -60 -71 0 c-79 -1 -80 5 7 -62 l36 -28 -20 -57 c-10
-31 -17 -58 -14 -61 2 -2 27 12 55 33 l50 37 51 -37 c28 -20 53 -34 56 -32 2
3 -4 31 -13 62 l-18 57 25 22 c14 11 39 31 55 43 l29 22 -71 0 -71 1 -18 60
c-10 33 -21 60 -25 60 -4 0 -15 -27 -25 -60z"/>
<path d="M550 4399 c0 -10 9 -19 22 -21 33 -5 45 -58 18 -80 -22 -18 -27 -38
-9 -38 12 0 147 79 154 90 14 23 -11 37 -95 51 -84 14 -90 14 -90 -2z m140
-39 c0 -5 -13 -16 -29 -24 -26 -14 -30 -14 -35 0 -11 29 -6 34 29 34 19 0 35
-4 35 -10z"/>
<path d="M6161 4339 c-7 -34 -9 -64 -5 -67 4 -4 8 -2 11 3 14 38 19 39 92 23
62 -14 70 -14 76 0 7 19 12 16 -70 33 -67 14 -70 16 -68 42 1 16 -3 27 -11 27
-8 0 -18 -24 -25 -61z"/>
<path d="M687 4250 c-72 -23 -87 -35 -87 -72 0 -36 14 -64 40 -78 31 -16 150
18 150 43 0 14 -5 17 -17 12 -10 -4 -42 -12 -71 -18 -44 -10 -54 -9 -68 5 -30
29 -9 56 59 76 41 12 63 24 65 35 4 21 2 21 -71 -3z"/>
<path d="M6136 4234 c-3 -9 9 -17 37 -24 85 -22 86 -24 11 -51 -96 -34 -95
-50 4 -77 94 -26 92 -26 92 -7 0 13 -55 35 -87 35 -6 0 -14 4 -18 9 -3 6 26
20 65 32 98 32 95 49 -14 75 -69 17 -86 18 -90 8z"/>
<path d="M783 4074 c2 -24 -4 -29 -60 -48 -68 -23 -78 -30 -69 -45 4 -6 33 -1
77 14 l70 24 11 -24 c12 -26 28 -34 28 -13 0 6 -8 35 -17 65 -17 55 -43 73
-40 27z"/>
<path d="M6075 4029 c-9 -28 -15 -51 -14 -53 6 -4 156 -56 162 -56 5 0 37 87
37 102 0 21 -20 4 -32 -28 -11 -31 -16 -34 -38 -29 -33 9 -32 8 -20 39 20 53
1 67 -20 15 -10 -22 -18 -29 -34 -27 -12 2 -20 10 -18 18 13 56 13 70 4 70 -6
0 -18 -23 -27 -51z"/>
<path d="M753 3934 c-83 -42 -54 -164 40 -164 30 0 45 7 69 30 26 27 30 36 25
67 -11 68 -72 98 -134 67z m100 -45 c24 -39 -19 -89 -76 -89 -49 0 -66 64 -24
94 27 19 86 17 100 -5z"/>
<path d="M6031 3907 c-7 -18 0 -28 40 -60 27 -21 49 -41 49 -44 0 -3 -29 -3
-65 -1 -57 3 -66 2 -71 -15 -7 -23 -14 -17 75 -62 58 -29 76 -34 82 -23 6 9
-8 20 -51 40 -33 15 -60 30 -60 33 0 3 27 3 60 -1 99 -11 105 -1 35 62 l-60
54 63 -21 c46 -16 67 -18 75 -10 14 14 15 14 -81 43 l-83 26 -8 -21z"/>
<path d="M833 3742 c-52 -27 -70 -41 -64 -50 6 -10 13 -11 35 -1 38 18 52 0
26 -33 -21 -27 -27 -58 -11 -58 5 0 16 12 26 26 13 20 22 24 42 19 31 -7 73
18 73 45 0 27 -31 90 -44 90 -6 -1 -43 -18 -83 -38z m92 -32 c0 -33 -39 -40
-54 -11 -9 16 -8 22 6 30 28 17 48 8 48 -19z"/>
<path d="M5932 3684 c-13 -26 -22 -48 -20 -49 6 -5 148 -75 153 -75 2 0 16 23
30 50 19 37 22 50 11 50 -7 0 -19 -13 -26 -30 -13 -33 -21 -35 -51 -20 -18 10
-18 13 -4 40 18 34 18 40 5 40 -6 0 -16 -11 -22 -25 -12 -27 -45 -34 -54 -11
-3 8 2 28 11 45 12 24 13 31 2 31 -7 0 -23 -21 -35 -46z"/>
<path d="M921 3605 c-77 -41 -89 -51 -75 -64 12 -13 162 70 157 87 -6 17 -10
16 -82 -23z"/>
<path d="M1000 3577 c0 -7 5 -18 11 -24 9 -9 -4 -22 -54 -53 -44 -28 -64 -46
-60 -56 7 -18 1 -20 69 21 64 39 79 42 88 20 6 -17 26 -21 26 -5 0 5 -14 32
-31 60 -30 49 -49 63 -49 37z"/>
<path d="M5878 3573 c-8 -10 -22 -30 -31 -45 l-16 -27 77 -44 c53 -31 79 -41
84 -33 5 6 -3 20 -18 32 -22 18 -24 25 -15 42 6 11 11 30 11 41 0 45 -62 68
-92 34z m60 -42 c5 -33 -11 -46 -39 -31 -34 18 -34 18 -14 40 24 26 49 22 53
-9z"/>
<path d="M1022 3408 c-70 -47 -73 -51 -59 -71 8 -12 20 -32 28 -44 8 -13 20
-23 27 -23 10 0 8 9 -7 34 -26 41 -26 43 0 57 19 10 25 7 44 -17 28 -34 45
-26 21 10 -20 32 -20 42 1 50 12 5 25 -2 44 -25 38 -47 43 -20 6 33 l-32 45
-73 -49z"/>
<path d="M5814 3450 c-31 -12 -69 -80 -52 -92 58 -38 128 -78 137 -78 18 0 13
21 -11 40 -20 16 -21 21 -10 44 17 37 15 53 -8 76 -22 22 -25 23 -56 10z m44
-56 c5 -34 -21 -48 -49 -25 -20 16 -22 21 -10 35 19 23 55 16 59 -10z"/>
<path d="M1140 3441 c0 -9 24 -21 42 -21 6 0 6 6 -2 15 -14 16 -40 20 -40 6z"/>
<path d="M5720 3309 c-36 -13 -63 -62 -55 -98 8 -39 45 -71 88 -78 85 -13 129
114 55 160 -34 22 -60 26 -88 16z m75 -54 c29 -28 32 -51 8 -77 -22 -25 -46
-23 -82 8 -32 27 -40 61 -19 82 20 20 67 14 93 -13z"/>
<path d="M1147 3219 c-60 -44 -76 -69 -46 -69 16 0 138 94 135 104 -5 21 -24
13 -89 -35z"/>
<path d="M1193 3159 c-35 -28 -63 -55 -63 -59 0 -21 19 -16 59 16 48 38 67 44
52 17 -19 -37 -39 -121 -31 -133 6 -10 25 0 75 40 36 29 69 50 72 46 4 -3 3
-6 -2 -6 -4 0 0 -9 10 -20 18 -20 18 -22 -35 -75 -43 -43 -52 -57 -42 -67 10
-10 24 -1 66 41 48 48 55 51 69 37 17 -17 41 -22 35 -7 -1 5 -29 36 -61 71
l-58 62 -45 -37 c-25 -21 -47 -35 -50 -33 -2 3 5 31 16 63 38 110 25 119 -67
44z"/>
<path d="M5566 3133 c-12 -13 -5 -22 61 -74 l66 -53 33 38 c19 21 31 43 27 49
-4 6 -16 -1 -29 -16 -13 -15 -26 -27 -30 -27 -3 0 -27 17 -53 38 -56 47 -66
53 -75 45z"/>
<path d="M5478 3114 c-5 -4 -8 -16 -8 -28 0 -14 3 -17 11 -9 6 6 9 19 7 28 -1
9 -6 13 -10 9z"/>
<path d="M5496 3051 l-38 -39 44 -41 c25 -22 56 -50 70 -61 l26 -20 36 44 c38
47 35 72 -4 31 -27 -29 -42 -31 -60 -10 -11 13 -9 20 10 40 13 14 19 29 14 36
-5 9 -13 5 -29 -15 -14 -18 -27 -25 -38 -20 -22 8 -21 26 3 57 41 52 17 51
-34 -2z"/>
<path d="M5436 2981 c-3 -5 7 -39 24 -75 16 -36 26 -66 23 -66 -3 0 -34 16
-68 35 -50 28 -65 32 -73 22 -17 -20 156 -104 174 -85 10 11 6 28 -23 96 -35
79 -45 92 -57 73z"/>
<path d="M1415 2910 l-60 -60 42 -42 c47 -47 73 -45 28 2 -28 29 -28 30 -10
50 l18 20 28 -26 c20 -19 29 -22 34 -13 5 7 0 19 -13 30 -26 20 -27 32 -8 48
11 9 20 6 43 -13 45 -38 49 -18 6 26 -20 21 -40 38 -43 38 -3 0 -32 -27 -65
-60z"/>
<path d="M1535 2823 c-59 -69 -67 -82 -59 -94 4 -7 17 -1 35 17 33 31 41 23
37 -40 -2 -24 2 -41 10 -43 7 -3 12 4 12 19 0 32 11 45 41 53 31 8 49 42 38
71 -7 20 -54 64 -68 64 -4 0 -25 -21 -46 -47z m73 -5 c15 -15 16 -45 2 -53
-17 -10 -50 5 -50 24 0 16 18 41 30 41 3 0 11 -5 18 -12z"/>
<path d="M5276 2836 l-40 -34 41 -48 c75 -90 73 -89 121 -48 23 20 40 40 36
45 -3 5 -19 -2 -36 -16 -36 -31 -40 -31 -57 -3 -12 20 -11 24 14 44 18 15 23
24 15 29 -6 4 -22 -3 -37 -16 -24 -24 -25 -24 -39 -5 -13 18 -11 23 11 46 48
50 27 54 -29 6z"/>
<path d="M5137 2719 l-47 -31 19 -26 c11 -15 38 -47 60 -72 l40 -45 41 42 c51
53 52 83 6 129 -42 42 -60 42 -119 3z m97 -30 c31 -37 32 -50 6 -80 l-20 -24
-40 45 c-46 52 -48 63 -17 78 34 17 43 14 71 -19z"/>
<path d="M1646 2709 c-38 -45 -35 -89 9 -128 20 -17 40 -31 44 -31 5 0 21 14
36 32 l26 31 -20 21 c-16 16 -23 18 -33 8 -9 -9 -9 -12 0 -12 16 0 15 -12 -2
-35 -14 -19 -15 -19 -35 -1 -31 28 -27 69 10 100 38 32 53 33 85 1 29 -29 34
-30 34 -11 0 25 -50 56 -90 56 -30 0 -44 -6 -64 -31z"/>
<path d="M1807 2629 c-21 -12 -47 -61 -47 -88 0 -11 12 -33 26 -50 21 -25 33
-31 65 -31 84 0 125 103 63 158 -27 23 -76 29 -107 11z m101 -62 c4 -30 -22
-74 -49 -82 -24 -8 -56 10 -64 34 -8 26 20 80 48 91 29 11 61 -10 65 -43z"/>
<path d="M4963 2598 c-24 -16 -43 -33 -43 -38 0 -11 79 -128 91 -136 13 -7 89
47 89 63 0 11 -8 9 -36 -8 -36 -22 -37 -22 -50 -4 -19 26 -18 34 11 47 14 6
25 17 25 25 0 17 -5 16 -35 -3 -27 -18 -55 -13 -55 10 0 8 13 22 30 33 17 11
26 23 22 30 -5 7 -21 1 -49 -19z"/>
<path d="M1962 2501 c-38 -69 -40 -90 -9 -118 30 -28 62 -36 86 -24 24 13 85
117 76 131 -11 18 -22 10 -48 -39 -31 -56 -49 -74 -73 -69 -39 7 -40 35 -6 98
30 54 34 80 14 80 -4 0 -22 -26 -40 -59z"/>
<path d="M4810 2499 c0 -14 80 -149 89 -149 13 0 81 51 81 60 0 14 -13 12 -36
-5 -30 -23 -37 -19 -73 45 -31 54 -61 78 -61 49z"/>
<path d="M2131 2383 c-10 -79 -9 -89 6 -100 14 -11 26 -4 84 50 36 34 67 65
68 70 3 22 -39 1 -81 -40 -26 -26 -50 -45 -52 -42 -2 2 0 24 4 49 13 67 12
100 -4 100 -9 0 -17 -26 -25 -87z"/>
<path d="M4633 2415 c-18 -8 -33 -19 -33 -25 0 -26 71 -150 86 -150 11 0 14 5
10 16 -26 67 -15 79 35 43 21 -14 33 -18 46 -11 14 8 12 12 -16 27 -28 14 -32
21 -28 44 7 35 -16 71 -46 71 -12 -1 -37 -7 -54 -15z m65 -42 c-4 -34 -32 -42
-48 -13 -14 26 -5 40 26 40 22 0 25 -4 22 -27z"/>
<path d="M2290 2343 c-12 -26 -28 -62 -36 -80 l-14 -32 46 -21 c51 -22 64 -24
64 -12 0 5 -16 16 -35 25 -33 15 -35 19 -24 40 6 12 13 23 14 25 2 2 17 -4 34
-12 18 -10 32 -12 36 -6 3 5 -8 16 -25 25 -53 27 -32 67 25 45 17 -6 32 -7 37
-2 8 8 -5 16 -89 49 -6 2 -21 -17 -33 -44z"/>
<path d="M4544 2367 c-3 -8 4 -35 16 -61 25 -59 25 -82 1 -96 -31 -16 -47 -3
-77 65 -21 47 -33 62 -42 56 -10 -6 -9 -19 8 -62 12 -30 29 -62 37 -71 18 -21
55 -23 86 -7 44 24 47 51 16 133 -22 55 -35 68 -45 43z"/>
<path d="M2407 2258 c-20 -62 -24 -84 -14 -90 8 -5 16 3 25 23 16 39 33 33 46
-16 16 -54 40 -61 31 -8 -5 35 -3 42 19 57 30 19 34 56 9 78 -14 11 -75 38
-87 38 -1 0 -14 -37 -29 -82z m92 28 c17 -20 3 -46 -24 -46 -29 0 -36 10 -28
38 6 25 35 29 52 8z"/>
<path d="M4320 2293 c-54 -20 -75 -80 -49 -137 22 -48 107 -58 142 -18 31 37
25 107 -14 139 -18 15 -60 23 -79 16z m46 -31 c17 -11 34 -48 34 -76 0 -30
-33 -56 -61 -49 -21 6 -49 51 -49 78 0 44 42 70 76 47z"/>
<path d="M2585 2277 c-15 -42 -45 -144 -45 -154 0 -7 6 -13 14 -13 9 0 19 20
26 50 7 28 16 52 20 55 4 3 17 -26 29 -64 35 -114 42 -108 97 82 4 11 0 17
-10 17 -10 0 -21 -19 -31 -55 -9 -30 -20 -53 -24 -51 -4 3 -16 34 -25 70 -17
61 -41 91 -51 63z"/>
<path d="M4118 2233 c-20 -5 -22 -14 -9 -63 6 -19 15 -54 21 -77 8 -31 15 -41
26 -36 10 4 13 14 8 38 -5 29 -3 33 20 39 38 9 62 50 48 81 -10 21 -18 25 -54
24 -24 -1 -51 -3 -60 -6z m80 -40 c4 -27 -36 -53 -49 -32 -11 17 -11 43 -2 53
15 14 48 1 51 -21z"/>
<path d="M2765 2218 c-8 -25 -35 -136 -35 -146 0 -11 61 -32 93 -32 31 0 18
19 -19 26 -31 6 -35 10 -32 33 3 24 7 26 41 23 44 -3 50 16 7 25 -23 4 -30 11
-30 30 0 23 2 24 45 17 59 -8 59 10 1 25 -57 14 -66 14 -71 -1z"/>
<path d="M2905 2178 c-30 -130 -32 -148 -23 -154 15 -9 26 13 33 68 10 67 21
68 30 1 13 -104 28 -109 68 -23 16 33 31 60 34 60 3 0 2 -29 -2 -65 -5 -53 -4
-65 8 -65 10 0 16 18 21 61 11 106 9 119 -16 119 -18 -1 -29 -14 -52 -63 l-29
-62 -10 65 c-5 36 -14 68 -21 72 -20 14 -36 8 -41 -14z"/>
<path d="M3928 2193 c-43 -5 -42 -1 -26 -106 l12 -78 55 7 c62 7 66 9 57 22
-3 6 -24 8 -47 5 -40 -6 -41 -5 -37 23 2 23 9 30 31 32 15 2 27 9 27 16 0 8
-12 11 -35 8 -32 -4 -35 -2 -35 22 0 19 5 26 19 26 26 0 51 10 51 21 0 5 -8 8
-17 7 -10 -1 -35 -3 -55 -5z"/>
<path d="M3125 2085 c-4 -47 -5 -88 -3 -90 2 -2 27 -7 56 -11 63 -8 74 12 11
22 -36 6 -40 9 -37 33 3 23 7 26 41 23 20 -2 37 1 37 6 0 12 -24 22 -51 22
-14 0 -19 7 -19 26 0 24 3 26 42 22 27 -2 43 1 45 10 3 8 -6 12 -25 12 -16 0
-43 3 -59 6 l-30 6 -8 -87z"/>
<path d="M3765 2108 c12 -118 13 -121 47 -114 17 3 39 6 49 6 11 0 19 5 19 10
0 6 -15 10 -34 10 -36 0 -45 15 -46 75 0 46 -11 75 -27 75 -12 0 -14 -11 -8
-62z"/>
<path d="M3606 2069 c-15 -50 -25 -94 -22 -97 8 -8 36 19 36 34 0 10 13 14 39
14 31 0 41 -4 46 -20 6 -20 35 -29 35 -10 0 5 -15 44 -34 87 -49 111 -64 110
-100 -8z m69 -20 c-8 -11 -32 -12 -39 0 -3 5 0 24 6 42 l12 34 13 -33 c7 -18
11 -37 8 -43z"/>
<path d="M3270 2064 c0 -64 3 -85 13 -82 7 3 14 29 17 62 l5 58 39 -67 c54
-93 70 -87 74 28 2 73 0 87 -13 87 -12 0 -15 -13 -15 -60 0 -33 -3 -60 -7 -60
-5 0 -24 27 -43 60 -21 37 -42 60 -52 60 -16 0 -18 -11 -18 -86z"/>
<path d="M3440 2141 c0 -5 10 -11 23 -13 20 -3 22 -10 27 -78 4 -63 8 -75 24
-78 17 -4 18 2 15 75 l-4 78 28 3 c55 7 25 22 -43 22 -38 0 -70 -4 -70 -9z"/>
<path d="M2543 1081 c-145 -50 -226 -170 -240 -357 -15 -204 56 -357 196 -423
50 -23 68 -26 171 -26 86 0 128 5 168 18 l52 19 0 69 c0 38 -4 69 -9 69 -5 0
-28 -7 -51 -15 -62 -22 -170 -30 -213 -16 -80 27 -117 81 -138 201 -11 66 -10
85 5 150 42 187 164 236 366 146 12 -5 22 9 42 61 30 78 32 74 -61 103 -82 26
-215 27 -288 1z"/>
<path d="M3959 1073 c-6 -16 -17 -46 -24 -68 -7 -22 -39 -112 -70 -200 -31
-88 -85 -242 -121 -343 l-63 -183 91 3 92 3 30 95 31 95 148 3 c113 2 148 0
151 -10 3 -7 17 -52 31 -101 l27 -87 89 0 c49 0 89 4 89 8 0 5 -29 91 -65 193
-36 101 -88 247 -115 324 -26 77 -61 175 -77 218 l-28 77 -103 0 -102 0 -11
-27z m185 -332 c20 -62 33 -117 30 -122 -7 -12 -191 -12 -198 0 -3 4 3 37 13
72 48 164 72 245 78 259 6 16 14 -7 77 -209z"/>
<path d="M4781 1084 c-141 -51 -212 -146 -242 -326 -11 -67 -11 -90 4 -173 27
-150 79 -230 185 -282 54 -26 65 -28 182 -27 85 0 138 6 165 16 l40 15 3 73
c3 66 1 72 -15 65 -93 -36 -237 -41 -290 -10 -42 25 -81 86 -94 146 -15 68 -6
202 15 254 50 118 165 156 301 100 33 -14 62 -21 66 -17 14 17 49 126 42 133
-44 41 -281 63 -362 33z"/>
<path d="M1960 685 l0 -405 85 0 85 0 0 405 0 405 -85 0 -85 0 0 -405z"/>
<path d="M3070 685 l0 -405 85 0 85 0 0 145 0 145 69 0 c199 0 314 98 314 270
1 103 -29 163 -101 206 -66 40 -92 44 -289 44 l-163 0 0 -405z m330 250 c38
-20 50 -43 50 -99 0 -38 -6 -53 -33 -82 -31 -34 -38 -37 -105 -42 l-72 -5 0
122 0 121 65 0 c39 0 78 -6 95 -15z"/>
</g>
</svg>
